<?xml version="1.0" standalone="no"?>
<!DOCTYPE svg PUBLIC "-//W3C//DTD SVG 20010904//EN"
 "http://www.w3.org/TR/2001/REC-SVG-20010904/DTD/svg10.dtd">
<svg version="1.0" xmlns="http://www.w3.org/2000/svg"
 width="500.000000pt" height="500.000000pt" viewBox="0 0 500.000000 500.000000"
 preserveAspectRatio="xMidYMid meet">
<metadata>
Created by potrace 1.11, written by Peter Selinger 2001-2013
</metadata>
<g transform="translate(0.000000,500.000000) scale(0.100000,-0.100000)"
fill="#000000" stroke="none">
<path d="M2190 4895 c-345 -48 -696 -174 -973 -348 -475 -301 -834 -758 -1006
-1282 -88 -267 -121 -478 -121 -765 0 -386 78 -725 244 -1065 359 -733 1058
-1229 1876 -1331 147 -18 433 -18 580 0 273 34 530 110 775 230 728 356 1230
1059 1330 1866 19 160 19 440 0 600 -33 265 -110 522 -229 765 -357 729 -1046
1221 -1866 1331 -132 17 -480 17 -610 -1z m-492 -861 c100 -21 173 -51 263
-109 141 -91 244 -209 318 -366 65 -135 73 -179 78 -402 l5 -197 -258 2 -259
3 -5 155 c-5 144 -7 159 -33 212 -35 72 -104 143 -165 171 -71 33 -199 31
-268 -5 -62 -32 -108 -84 -143 -158 l-26 -55 -3 -764 c-2 -675 -1 -771 13
-819 27 -93 79 -157 160 -200 43 -23 62 -27 140 -27 81 0 95 3 144 30 63 35
110 89 148 171 26 55 28 69 31 212 l4 152 265 0 266 0 -6 -182 c-6 -215 -23
-293 -92 -433 -123 -250 -337 -418 -595 -471 -101 -20 -289 -15 -385 11 -300
82 -540 342 -611 660 -17 74 -18 143 -15 865 1 458 6 810 12 845 56 339 325
628 651 699 88 20 272 19 366 0z m2027 -14 c279 -88 499 -321 577 -607 17 -65
21 -109 22 -263 l1 -185 -257 -3 -258 -2 0 113 c0 202 -29 287 -128 378 -83
76 -186 97 -303 63 -72 -21 -156 -105 -190 -190 l-24 -59 -3 -725 c-3 -768 -1
-813 43 -900 32 -63 113 -134 177 -156 66 -22 177 -15 233 14 87 45 165 156
185 263 6 28 10 103 10 166 l0 113 263 -2 262 -3 3 -80 c4 -101 -13 -292 -34
-370 -22 -84 -93 -228 -152 -306 -139 -182 -325 -297 -536 -330 -98 -16 -273
-6 -365 21 -320 91 -566 382 -611 722 -8 59 -10 318 -7 849 4 820 4 813 57
958 58 155 183 314 323 410 73 50 203 108 282 125 105 23 337 16 430 -14z"/>
</g>
</svg>
